<svg width="25" height="24" viewBox="0 0 25 24" fill="none" xmlns="http://www.w3.org/2000/svg">
<path d="M12.5 1C9.73858 1 7.5 3.23858 7.5 6V10C7.5 12.7614 9.73858 15 12.5 15C15.2614 15 17.5 12.7614 17.5 10V6C17.5 3.23858 15.2614 1 12.5 1Z" fill="#232833"/>
<path d="M7.3 21H11.5V18.4418C7.27683 17.9469 4 14.3561 4 10V9.8C4 9.51997 4 9.37996 4.0545 9.273C4.10243 9.17892 4.17892 9.10243 4.273 9.0545C4.37996 9 4.51997 9 4.8 9H5.2C5.48003 9 5.62004 9 5.727 9.0545C5.82108 9.10243 5.89757 9.17892 5.9455 9.273C6 9.37996 6 9.51997 6 9.8V10C6 13.5899 8.91015 16.5 12.5 16.5C16.0899 16.5 19 13.5899 19 10V9.8C19 9.51997 19 9.37996 19.0545 9.273C19.1024 9.17892 19.1789 9.10243 19.273 9.0545C19.38 9 19.52 9 19.8 9H20.2C20.48 9 20.62 9 20.727 9.0545C20.8211 9.10243 20.8976 9.17892 20.9455 9.273C21 9.37996 21 9.51997 21 9.8V10C21 14.3561 17.7232 17.9469 13.5 18.4418V21H17.7C17.98 21 18.12 21 18.227 21.0545C18.3211 21.1024 18.3976 21.1789 18.4455 21.273C18.5 21.38 18.5 21.52 18.5 21.8V22.2C18.5 22.48 18.5 22.62 18.4455 22.727C18.3976 22.8211 18.3211 22.8976 18.227 22.9455C18.12 23 17.98 23 17.7 23H7.3C7.01997 23 6.87996 23 6.773 22.9455C6.67892 22.8976 6.60243 22.8211 6.5545 22.727C6.5 22.62 6.5 22.48 6.5 22.2V21.8C6.5 21.52 6.5 21.38 6.5545 21.273C6.60243 21.1789 6.67892 21.1024 6.773 21.0545C6.87996 21 7.01997 21 7.3 21Z" fill="#232833"/>
</svg>
